<mxfile host="app.diagrams.net" modified="2020-04-03T13:24:13.304Z" agent="5.0 (Macintosh; Intel Mac OS X 10_14_6) AppleWebKit/537.36 (KHTML, like Gecko) Chrome/80.0.3987.149 Safari/537.36" etag="UHJ3LPOGmS9T_XeDtJqj" version="12.9.6" type="github" pages="2">
  <diagram id="NRAOrUQztztXdDNH-yVj" name="分布式系统">
    <mxGraphModel dx="1426" dy="771" grid="1" gridSize="10" guides="1" tooltips="1" connect="1" arrows="1" fold="1" page="1" pageScale="1" pageWidth="827" pageHeight="1169" math="0" shadow="0">
      <root>
        <mxCell id="0" />
        <mxCell id="1" parent="0" />
      </root>
    </mxGraphModel>
  </diagram>
  <diagram id="VgPkvBJgNVEzJTkSKdBy" name="基本单位">
    <mxGraphModel dx="1426" dy="771" grid="1" gridSize="10" guides="1" tooltips="1" connect="1" arrows="1" fold="1" page="1" pageScale="1" pageWidth="827" pageHeight="1169" math="0" shadow="0">
      <root>
        <mxCell id="8YHROWmZF8G9vhJu4PTo-0" />
        <mxCell id="8YHROWmZF8G9vhJu4PTo-1" parent="8YHROWmZF8G9vhJu4PTo-0" />
      </root>
    </mxGraphModel>
  </diagram>
</mxfile>
